<?xml version="1.0" ?><svg data-name="Layer 1" id="Layer_1" viewBox="0 0 512 512" xmlns="http://www.w3.org/2000/svg"><defs><style>.cls-1{fill:none;stroke:#231f20;stroke-linejoin:round;stroke-width:9.91px;}</style></defs><title/><polyline class="cls-1" points="43.27 413.15 64.19 298.92 43.27 184.69 175.59 250.85 204.23 413.15"/><line class="cls-1" x1="64.19" x2="184.08" y1="298.92" y2="298.92"/><polyline class="cls-1" points="465.93 413.15 445.11 298.92 465.93 184.69 334.26 250.85 305.76 413.15"/><line class="cls-1" x1="445.11" x2="325.82" y1="298.92" y2="298.92"/><line class="cls-1" x1="59.62" x2="180.39" y1="273.97" y2="273.97"/><line class="cls-1" x1="330.2" x2="449.66" y1="273.97" y2="273.97"/><rect class="cls-1" height="25.57" width="168.21" x="170.49" y="189.22"/><polyline class="cls-1" points="234.79 214.79 234.79 343.41 158.29 378.53 158.29 413.15"/><polyline class="cls-1" points="274.41 214.79 274.41 343.41 350.91 378.53 350.91 413.15"/><line class="cls-1" x1="234.79" x2="274.41" y1="343.41" y2="343.41"/><line class="cls-1" x1="234.79" x2="274.41" y1="273.97" y2="273.97"/><polygon class="cls-1" points="274.41 142.99 234.79 116.58 234.79 189.22 274.41 189.22 274.41 142.99"/><polygon class="cls-1" points="234.79 116.58 266.55 101.17 266.55 137.75 234.79 116.58"/></svg>